<svg width="91" height="58" viewBox="0 0 91 58" fill="none" xmlns="http://www.w3.org/2000/svg">
<path d="M0.262039 57.8889C0.17849 57.8889 0.11393 57.8667 0.0683578 57.8222C0.0227859 57.7704 0 57.7074 0 57.6333V50.3667C0 50.2926 0.0227859 50.2333 0.0683578 50.1889C0.11393 50.137 0.17849 50.1111 0.262039 50.1111H0.865866C0.94182 50.1111 1.00258 50.137 1.04815 50.1889C1.10132 50.2333 1.1279 50.2926 1.1279 50.3667V57.6333C1.1279 57.7074 1.10132 57.7704 1.04815 57.8222C1.00258 57.8667 0.94182 57.8889 0.865866 57.8889H0.262039Z" fill="white"/>
<path d="M3.37731 57.8889C3.29376 57.8889 3.2292 57.8667 3.18363 57.8222C3.13805 57.7704 3.11527 57.7074 3.11527 57.6333V50.3778C3.11527 50.2963 3.13805 50.2333 3.18363 50.1889C3.2292 50.137 3.29376 50.1111 3.37731 50.1111H3.90138C3.99253 50.1111 4.06089 50.1333 4.10646 50.1778C4.15203 50.2148 4.17861 50.2444 4.18621 50.2667L7.96868 55.9333V50.3778C7.96868 50.2963 7.99146 50.2333 8.03703 50.1889C8.08261 50.137 8.14717 50.1111 8.23071 50.1111H8.77758C8.86113 50.1111 8.92569 50.137 8.97126 50.1889C9.02443 50.2333 9.05101 50.2963 9.05101 50.3778V57.6222C9.05101 57.6963 9.02443 57.7593 8.97126 57.8111C8.92569 57.863 8.86492 57.8889 8.78897 57.8889H8.24211C8.15856 57.8889 8.094 57.8667 8.04843 57.8222C8.01045 57.7778 7.98387 57.7481 7.96868 57.7333L4.1976 52.1222V57.6333C4.1976 57.7074 4.17102 57.7704 4.11785 57.8222C4.07228 57.8667 4.00772 57.8889 3.92417 57.8889H3.37731Z" fill="white"/>
<path d="M11.2879 57.8889C11.2043 57.8889 11.1398 57.8667 11.0942 57.8222C11.0486 57.7704 11.0258 57.7074 11.0258 57.6333V50.3778C11.0258 50.2963 11.0486 50.2333 11.0942 50.1889C11.1398 50.137 11.2043 50.1111 11.2879 50.1111H15.9362C16.0197 50.1111 16.0843 50.137 16.1299 50.1889C16.1754 50.2333 16.1982 50.2963 16.1982 50.3778V50.8222C16.1982 50.9037 16.1754 50.9667 16.1299 51.0111C16.0843 51.0556 16.0197 51.0778 15.9362 51.0778H12.1309V53.6667H15.7083C15.7919 53.6667 15.8564 53.6926 15.902 53.7444C15.9476 53.7889 15.9704 53.8519 15.9704 53.9333V54.3778C15.9704 54.4519 15.9476 54.5148 15.902 54.5667C15.8564 54.6111 15.7919 54.6333 15.7083 54.6333H12.1309V57.6333C12.1309 57.7074 12.1044 57.7704 12.0512 57.8222C12.0056 57.8667 11.9411 57.8889 11.8575 57.8889H11.2879Z" fill="white"/>
<path d="M17.9412 57.8889C17.8576 57.8889 17.7931 57.8667 17.7475 57.8222C17.7019 57.7704 17.6791 57.7074 17.6791 57.6333V50.3667C17.6791 50.2926 17.7019 50.2333 17.7475 50.1889C17.7931 50.137 17.8576 50.1111 17.9412 50.1111H18.545C18.621 50.1111 18.6817 50.137 18.7273 50.1889C18.7729 50.2333 18.7957 50.2926 18.7957 50.3667V56.9222H22.5895C22.6731 56.9222 22.7376 56.9481 22.7832 57C22.8288 57.0444 22.8516 57.1074 22.8516 57.1889V57.6333C22.8516 57.7074 22.8288 57.7704 22.7832 57.8222C22.7376 57.8667 22.6731 57.8889 22.5895 57.8889H17.9412Z" fill="white"/>
<path d="M26.9174 58C26.2794 58 25.7288 57.8889 25.2654 57.6667C24.8097 57.4444 24.4565 57.1074 24.2059 56.6556C23.9628 56.1963 23.8413 55.6074 23.8413 54.8889V50.3778C23.8413 50.2963 23.8641 50.2333 23.9097 50.1889C23.9553 50.137 24.0198 50.1111 24.1034 50.1111H24.6844C24.768 50.1111 24.8325 50.137 24.8781 50.1889C24.9313 50.2333 24.9578 50.2963 24.9578 50.3778V54.9111C24.9578 55.637 25.1325 56.1741 25.4819 56.5222C25.8313 56.8704 26.3098 57.0444 26.9174 57.0444C27.5175 57.0444 27.9922 56.8704 28.3415 56.5222C28.6985 56.1741 28.877 55.637 28.877 54.9111V50.3778C28.877 50.2963 28.8998 50.2333 28.9454 50.1889C28.9985 50.137 29.0631 50.1111 29.1391 50.1111H29.7315C29.8074 50.1111 29.8682 50.137 29.9138 50.1889C29.9669 50.2333 29.9935 50.2963 29.9935 50.3778V54.8889C29.9935 55.6074 29.8682 56.1963 29.6176 56.6556C29.3745 57.1074 29.0251 57.4444 28.5694 57.6667C28.1137 57.8889 27.563 58 26.9174 58Z" fill="white"/>
<path d="M32.1602 57.8889C32.0766 57.8889 32.012 57.8667 31.9665 57.8222C31.9209 57.7704 31.8981 57.7074 31.8981 57.6333V50.3778C31.8981 50.2963 31.9209 50.2333 31.9665 50.1889C32.012 50.137 32.0766 50.1111 32.1602 50.1111H36.8655C36.949 50.1111 37.0136 50.137 37.0591 50.1889C37.1047 50.2333 37.1275 50.2963 37.1275 50.3778V50.8C37.1275 50.8815 37.1047 50.9444 37.0591 50.9889C37.0136 51.0333 36.949 51.0556 36.8655 51.0556H32.9918V53.4889H36.6148C36.6984 53.4889 36.7629 53.5148 36.8085 53.5667C36.8541 53.6111 36.8769 53.6741 36.8769 53.7556V54.1667C36.8769 54.2407 36.8541 54.3037 36.8085 54.3556C36.7629 54.4 36.6984 54.4222 36.6148 54.4222H32.9918V56.9444H36.9566C37.0401 56.9444 37.1047 56.9667 37.1503 57.0111C37.1959 57.0556 37.2186 57.1185 37.2186 57.2V57.6333C37.2186 57.7074 37.1959 57.7704 37.1503 57.8222C37.1047 57.8667 37.0401 57.8889 36.9566 57.8889H32.1602Z" fill="white"/>
<path d="M39.0694 57.8889C38.9858 57.8889 38.9213 57.8667 38.8757 57.8222C38.8301 57.7704 38.8073 57.7074 38.8073 57.6333V50.3778C38.8073 50.2963 38.8301 50.2333 38.8757 50.1889C38.9213 50.137 38.9858 50.1111 39.0694 50.1111H39.5934C39.6846 50.1111 39.753 50.1333 39.7985 50.1778C39.8441 50.2148 39.8707 50.2444 39.8783 50.2667L43.6607 55.9333V50.3778C43.6607 50.2963 43.6835 50.2333 43.7291 50.1889C43.7747 50.137 43.8392 50.1111 43.9228 50.1111H44.4696C44.5532 50.1111 44.6178 50.137 44.6633 50.1889C44.7165 50.2333 44.7431 50.2963 44.7431 50.3778V57.6222C44.7431 57.6963 44.7165 57.7593 44.6633 57.8111C44.6178 57.863 44.557 57.8889 44.481 57.8889H43.9342C43.8506 57.8889 43.7861 57.8667 43.7405 57.8222C43.7025 57.7778 43.6759 57.7481 43.6607 57.7333L39.8897 52.1222V57.6333C39.8897 57.7074 39.8631 57.7704 39.8099 57.8222C39.7643 57.8667 39.6998 57.8889 39.6162 57.8889H39.0694Z" fill="white"/>
<path d="M49.5889 58C48.8902 58 48.3091 57.8741 47.8458 57.6222C47.3901 57.3704 47.0445 57.0185 46.809 56.5667C46.5736 56.1148 46.4445 55.5889 46.4217 54.9889C46.4141 54.6852 46.4103 54.3593 46.4103 54.0111C46.4103 53.663 46.4141 53.3296 46.4217 53.0111C46.4445 52.4111 46.5736 51.8852 46.809 51.4333C47.0445 50.9815 47.3901 50.6296 47.8458 50.3778C48.3091 50.1259 48.8902 50 49.5889 50C50.113 50 50.5725 50.0704 50.9675 50.2111C51.3624 50.3519 51.689 50.5407 51.9473 50.7778C52.2131 51.0148 52.4144 51.2815 52.5511 51.5778C52.6878 51.8667 52.7638 52.1667 52.779 52.4778C52.7866 52.5444 52.7638 52.6 52.7106 52.6444C52.665 52.6889 52.6081 52.7111 52.5397 52.7111H51.9131C51.8447 52.7111 51.784 52.6926 51.7308 52.6556C51.6852 52.6185 51.651 52.5519 51.6283 52.4556C51.4991 51.8778 51.2561 51.4815 50.8991 51.2667C50.5497 51.0519 50.1092 50.9444 49.5775 50.9444C48.9699 50.9444 48.4876 51.1148 48.1306 51.4556C47.7736 51.7889 47.58 52.3259 47.5496 53.0667C47.5268 53.6741 47.5268 54.2963 47.5496 54.9333C47.58 55.6741 47.7736 56.2148 48.1306 56.5556C48.4876 56.8889 48.9699 57.0556 49.5775 57.0556C50.1092 57.0556 50.5497 56.9481 50.8991 56.7333C51.2561 56.5185 51.4991 56.1222 51.6283 55.5444C51.651 55.4481 51.6852 55.3815 51.7308 55.3444C51.784 55.3074 51.8447 55.2889 51.9131 55.2889H52.5397C52.6081 55.2889 52.665 55.3111 52.7106 55.3556C52.7638 55.4 52.7866 55.4556 52.779 55.5222C52.7638 55.8333 52.6878 56.137 52.5511 56.4333C52.4144 56.7222 52.2131 56.9852 51.9473 57.2222C51.689 57.4593 51.3624 57.6481 50.9675 57.7889C50.5725 57.9296 50.113 58 49.5889 58Z" fill="white"/>
<path d="M54.5678 57.8889C54.4843 57.8889 54.4197 57.8667 54.3741 57.8222C54.3286 57.7704 54.3058 57.7074 54.3058 57.6333V50.3778C54.3058 50.2963 54.3286 50.2333 54.3741 50.1889C54.4197 50.137 54.4843 50.1111 54.5678 50.1111H59.2731C59.3567 50.1111 59.4212 50.137 59.4668 50.1889C59.5124 50.2333 59.5352 50.2963 59.5352 50.3778V50.8C59.5352 50.8815 59.5124 50.9444 59.4668 50.9889C59.4212 51.0333 59.3567 51.0556 59.2731 51.0556H55.3995V53.4889H59.0225C59.106 53.4889 59.1706 53.5148 59.2162 53.5667C59.2617 53.6111 59.2845 53.6741 59.2845 53.7556V54.1667C59.2845 54.2407 59.2617 54.3037 59.2162 54.3556C59.1706 54.4 59.106 54.4222 59.0225 54.4222H55.3995V56.9444H59.3643C59.4478 56.9444 59.5124 56.9667 59.558 57.0111C59.6035 57.0556 59.6263 57.1185 59.6263 57.2V57.6333C59.6263 57.7074 59.6035 57.7704 59.558 57.8222C59.5124 57.8667 59.4478 57.8889 59.3643 57.8889H54.5678Z" fill="white"/>
<path d="M61.4771 57.8889C61.3935 57.8889 61.3289 57.8667 61.2834 57.8222C61.2378 57.7704 61.215 57.7074 61.215 57.6333V50.3778C61.215 50.2963 61.2378 50.2333 61.2834 50.1889C61.3289 50.137 61.3935 50.1111 61.4771 50.1111H64.2569C65.1152 50.1111 65.795 50.3074 66.2963 50.7C66.7976 51.0926 67.0482 51.6741 67.0482 52.4444C67.0482 53.0148 66.9001 53.4815 66.6039 53.8444C66.3153 54.2 65.9203 54.4481 65.419 54.5889L67.1735 57.5444C67.1963 57.5889 67.2077 57.6296 67.2077 57.6667C67.2077 57.7259 67.1811 57.7778 67.128 57.8222C67.0824 57.8667 67.0292 57.8889 66.9685 57.8889H66.4216C66.2925 57.8889 66.1975 57.8556 66.1368 57.7889C66.076 57.7222 66.0228 57.6556 65.9773 57.5889L64.3253 54.7667H62.3315V57.6333C62.3315 57.7074 62.3049 57.7704 62.2518 57.8222C62.2062 57.8667 62.1416 57.8889 62.0581 57.8889H61.4771ZM62.3315 53.8222H64.2114C64.781 53.8222 65.2064 53.7074 65.4874 53.4778C65.7684 53.2407 65.9089 52.8926 65.9089 52.4333C65.9089 51.9815 65.7684 51.637 65.4874 51.4C65.2139 51.163 64.7886 51.0444 64.2114 51.0444H62.3315V53.8222Z" fill="white"/>
<path d="M68.9426 57.8889C68.859 57.8889 68.7944 57.8667 68.7489 57.8222C68.7033 57.7704 68.6805 57.7074 68.6805 57.6333V50.3778C68.6805 50.2963 68.7033 50.2333 68.7489 50.1889C68.7944 50.137 68.859 50.1111 68.9426 50.1111H69.4666C69.5578 50.1111 69.6261 50.1333 69.6717 50.1778C69.7173 50.2148 69.7439 50.2444 69.7515 50.2667L73.5339 55.9333V50.3778C73.5339 50.2963 73.5567 50.2333 73.6023 50.1889C73.6479 50.137 73.7124 50.1111 73.796 50.1111H74.3428C74.4264 50.1111 74.4909 50.137 74.5365 50.1889C74.5897 50.2333 74.6163 50.2963 74.6163 50.3778V57.6222C74.6163 57.6963 74.5897 57.7593 74.5365 57.8111C74.4909 57.863 74.4302 57.8889 74.3542 57.8889H73.8074C73.7238 57.8889 73.6593 57.8667 73.6137 57.8222C73.5757 57.7778 73.5491 57.7481 73.5339 57.7333L69.7629 52.1222V57.6333C69.7629 57.7074 69.7363 57.7704 69.6831 57.8222C69.6375 57.8667 69.573 57.8889 69.4894 57.8889H68.9426Z" fill="white"/>
<path d="M76.8531 57.8889C76.7696 57.8889 76.705 57.8667 76.6594 57.8222C76.6139 57.7704 76.5911 57.7074 76.5911 57.6333V50.3778C76.5911 50.2963 76.6139 50.2333 76.6594 50.1889C76.705 50.137 76.7696 50.1111 76.8531 50.1111H81.5584C81.642 50.1111 81.7065 50.137 81.7521 50.1889C81.7977 50.2333 81.8205 50.2963 81.8205 50.3778V50.8C81.8205 50.8815 81.7977 50.9444 81.7521 50.9889C81.7065 51.0333 81.642 51.0556 81.5584 51.0556H77.6848V53.4889H81.3078C81.3913 53.4889 81.4559 53.5148 81.5014 53.5667C81.547 53.6111 81.5698 53.6741 81.5698 53.7556V54.1667C81.5698 54.2407 81.547 54.3037 81.5014 54.3556C81.4559 54.4 81.3913 54.4222 81.3078 54.4222H77.6848V56.9444H81.6496C81.7331 56.9444 81.7977 56.9667 81.8432 57.0111C81.8888 57.0556 81.9116 57.1185 81.9116 57.2V57.6333C81.9116 57.7074 81.8888 57.7704 81.8432 57.8222C81.7977 57.8667 81.7331 57.8889 81.6496 57.8889H76.8531Z" fill="white"/>
<path d="M83.7623 57.8889C83.6788 57.8889 83.6142 57.8667 83.5687 57.8222C83.5231 57.7704 83.5003 57.7074 83.5003 57.6333V50.3778C83.5003 50.2963 83.5231 50.2333 83.5687 50.1889C83.6142 50.137 83.6788 50.1111 83.7623 50.1111H86.5422C87.4005 50.1111 88.0803 50.3074 88.5816 50.7C89.0829 51.0926 89.3335 51.6741 89.3335 52.4444C89.3335 53.0148 89.1854 53.4815 88.8892 53.8444C88.6006 54.2 88.2056 54.4481 87.7043 54.5889L89.4588 57.5444C89.4816 57.5889 89.493 57.6296 89.493 57.6667C89.493 57.7259 89.4664 57.7778 89.4133 57.8222C89.3677 57.8667 89.3145 57.8889 89.2538 57.8889H88.7069C88.5778 57.8889 88.4828 57.8556 88.4221 57.7889C88.3613 57.7222 88.3081 57.6556 88.2626 57.5889L86.6106 54.7667H84.6168V57.6333C84.6168 57.7074 84.5902 57.7704 84.5371 57.8222C84.4915 57.8667 84.4269 57.8889 84.3434 57.8889H83.7623ZM84.6168 53.8222H86.4967C87.0663 53.8222 87.4916 53.7074 87.7727 53.4778C88.0537 53.2407 88.1942 52.8926 88.1942 52.4333C88.1942 51.9815 88.0537 51.637 87.7727 51.4C87.4992 51.163 87.0739 51.0444 86.4967 51.0444H84.6168V53.8222Z" fill="white"/>
<mask id="mask0_556_5593" style="mask-type:luminance" maskUnits="userSpaceOnUse" x="46" y="0" width="23" height="11">
<path d="M54.6963 0.0268581C53.4212 0.0266046 52.1585 0.277834 50.9807 0.766166C49.8028 1.2545 48.7328 1.97034 47.8319 2.87272L46.7798 3.92486L49.9175 7.06789C51.7277 8.88087 54.1428 9.96294 56.7007 10.1072C59.2587 10.2514 61.7801 9.44764 63.7827 7.84963L67.2389 4.42282C67.601 4.06413 67.8483 3.60589 67.9493 3.10634C68.0503 2.60679 68.0005 2.08849 67.8062 1.6173C67.612 1.14612 67.282 0.743339 66.8582 0.460144C66.4345 0.176949 65.9361 0.0261303 65.4265 0.0268581H54.6963Z" fill="white"/>
</mask>
<g mask="url(#mask0_556_5593)">
<path d="M47.9079 -4.82865L44.3374 10.5635L67.7411 15.9925L71.3117 0.600355L47.9079 -4.82865Z" fill="url(#paint0_linear_556_5593)"/>
</g>
<mask id="mask1_556_5593" style="mask-type:luminance" maskUnits="userSpaceOnUse" x="46" y="0" width="23" height="11">
<path d="M54.7153 2.62182e-06C53.4402 -0.000397 52.1775 0.250766 50.9996 0.739106C49.8217 1.22745 48.7518 1.94337 47.851 2.84586L46.7988 3.898L49.9365 7.04103C51.7471 8.85348 54.162 9.93518 56.7198 10.0794C59.2776 10.2236 61.7989 9.42022 63.8017 7.82278L67.258 4.39596C67.6201 4.03727 67.8673 3.57903 67.9683 3.07948C68.0693 2.57993 68.0195 2.06163 67.8253 1.59045C67.631 1.11927 67.301 0.716482 66.8773 0.433287C66.4535 0.150092 65.9552 -0.000725189 65.4455 2.62182e-06H54.7153Z" fill="white"/>
</mask>
<g mask="url(#mask1_556_5593)">
<path d="M31.0719 -23.8034L22.7676 -6.20361L45.1153 4.34103L53.4197 -13.2587L31.0719 -23.8034Z" fill="url(#paint1_linear_556_5593)"/>
</g>
<mask id="mask2_556_5593" style="mask-type:luminance" maskUnits="userSpaceOnUse" x="26" y="0" width="38" height="41">
<path d="M28.5807 0.0268676C28.071 0.0253053 27.5724 0.175158 27.148 0.457417C26.7236 0.739676 26.3926 1.14162 26.197 1.61227C26.0014 2.08292 25.95 2.60105 26.0493 3.10096C26.1486 3.60086 26.3942 4.06001 26.7548 4.42015L36.4998 14.2294L40.8797 18.6388C41.9218 19.6865 42.5062 21.1045 42.5048 22.5823V39.7993C42.5045 40.0308 42.5713 40.2573 42.6969 40.4517C42.8225 40.6461 43.0017 40.7999 43.2128 40.8948C43.424 40.9896 43.658 41.0213 43.8868 40.986C44.1155 40.9508 44.3292 40.8501 44.502 40.6962L51.1173 34.8304C51.2439 34.7179 51.3452 34.5797 51.4144 34.4251C51.4837 34.2705 51.5193 34.103 51.5189 33.9336V22.3493C51.5191 21.6109 51.6656 20.8798 51.95 20.1983C52.2345 19.5168 52.6512 18.8985 53.1761 18.3791L63.7912 7.85767C61.7886 9.45568 59.2672 10.2594 56.7093 10.1152C54.1513 9.97098 51.7363 8.88891 49.926 7.07593L46.7803 3.9329L45.7308 2.88076C44.83 1.97697 43.7598 1.25969 42.5815 0.769985C41.4032 0.280277 40.1398 0.0277539 38.8638 0.0268676H28.5807Z" fill="white"/>
</mask>
<g mask="url(#mask2_556_5593)">
<path d="M46.0071 -19.2246L4.53662 19.0566L42.9232 60.6412L84.3936 22.36L46.0071 -19.2246Z" fill="url(#paint2_linear_556_5593)"/>
</g>
<g opacity="0.2">
<mask id="mask3_556_5593" style="mask-type:luminance" maskUnits="userSpaceOnUse" x="46" y="2" width="19" height="9">
<path d="M64.5947 2.854H46.8101V10.1226H64.5947V2.854Z" fill="white"/>
</mask>
<g mask="url(#mask3_556_5593)">
<path d="M51.0614 6.03987L47.9211 2.89684L47.8809 2.854C47.8734 2.85882 47.867 2.86521 47.8622 2.87274L46.8101 3.92488L49.9477 7.06524C51.7576 8.87803 54.1722 9.96001 56.7297 10.1042C59.2872 10.2485 61.8081 9.4448 63.8103 7.84698L64.5947 7.07327C62.5877 8.54679 60.1193 9.2527 57.6367 9.06313C55.1541 8.87356 52.8214 7.80104 51.0614 6.03987Z" fill="url(#paint3_linear_556_5593)"/>
</g>
</g>
<defs>
<linearGradient id="paint0_linear_556_5593" x1="56.0393" y1="13.278" x2="59.6098" y2="-2.11415" gradientUnits="userSpaceOnUse">
<stop stop-color="#FBC7D4"/>
<stop offset="1" stop-color="#9796F0"/>
</linearGradient>
<linearGradient id="paint1_linear_556_5593" x1="33.9414" y1="-0.93129" x2="42.2458" y2="-18.531" gradientUnits="userSpaceOnUse">
<stop stop-color="#FBC7D4"/>
<stop offset="1" stop-color="#9796F0"/>
</linearGradient>
<linearGradient id="paint2_linear_556_5593" x1="23.7299" y1="39.8489" x2="65.2003" y2="1.56768" gradientUnits="userSpaceOnUse">
<stop stop-color="#FBC7D4"/>
<stop offset="1" stop-color="#9796F0"/>
</linearGradient>
<linearGradient id="paint3_linear_556_5593" x1="46.8101" y1="6.48738" x2="64.5947" y2="6.48738" gradientUnits="userSpaceOnUse">
<stop stop-color="#FBC7D4"/>
<stop offset="1" stop-color="#9796F0"/>
</linearGradient>
</defs>
</svg>
