<svg width="13" height="13" viewBox="0 0 13 13" fill="none" xmlns="http://www.w3.org/2000/svg">
<path fill-rule="evenodd" clip-rule="evenodd" d="M7.88089 6.5L12.714 11.3331C12.8971 11.5162 13 11.7646 13 12.0236C13 12.2825 12.8971 12.5309 12.714 12.714C12.5309 12.8971 12.2825 13 12.0236 13C11.7646 13 11.5162 12.8971 11.3331 12.714L6.5 7.88089L1.66688 12.714C1.48376 12.8971 1.2354 13 0.976437 13C0.71747 13 0.469109 12.8971 0.285992 12.714C0.102874 12.5309 0 12.2825 0 12.0236C0 11.7646 0.102874 11.5162 0.285992 11.3331L5.11911 6.5L0.285992 1.66688C0.102874 1.48377 0 1.2354 0 0.976438C0 0.71747 0.102874 0.46911 0.285992 0.285993C0.469109 0.102875 0.71747 5.32427e-07 0.976437 5.32427e-07C1.2354 5.32427e-07 1.48376 0.102875 1.66688 0.285993L6.5 5.11911L11.3331 0.285992C11.5162 0.102875 11.7646 0 12.0236 0C12.2825 0 12.5309 0.102875 12.714 0.285993C12.8971 0.46911 13 0.71747 13 0.976437C13 1.2354 12.8971 1.48377 12.714 1.66688L7.88089 6.5Z" fill="#8B8989"/>
</svg>
